<svg xmlns="http://www.w3.org/2000/svg" width="68" height="68" viewBox="0 0 68 68" fill="none">
                           <path d="M61.625 12.8828H6.375C5.4243 12.8839 4.51285 13.2621 3.8406 13.9344C3.16835 14.6066 2.79019 15.518 2.78906 16.4688V51.5312C2.79019 52.482 3.16835 53.3934 3.8406 54.0656C4.51285 54.7379 5.4243 55.1161 6.375 55.1172H61.625C62.5757 55.1161 63.4871 54.7379 64.1594 54.0656C64.8316 53.3934 65.2098 52.482 65.2109 51.5312V16.4688C65.2098 15.518 64.8316 14.6066 64.1594 13.9344C63.4871 13.2621 62.5757 12.8839 61.625 12.8828ZM63.3516 51.5312C63.351 51.989 63.1689 52.4278 62.8452 52.7515C62.5216 53.0752 62.0827 53.2573 61.625 53.2578H6.375C5.91726 53.2573 5.47843 53.0752 5.15476 52.7515C4.83109 52.4278 4.649 51.989 4.64844 51.5312V16.4688C4.649 16.011 4.83109 15.5722 5.15476 15.2485C5.47843 14.9248 5.91726 14.7427 6.375 14.7422H61.625C62.0827 14.7427 62.5216 14.9248 62.8452 15.2485C63.1689 15.5722 63.351 16.011 63.3516 16.4688V51.5312Z" fill="black"></path>
                           <path d="M35.9584 30.4154L28.2414 29.2939L24.7883 22.3005C24.7114 22.1451 24.5926 22.0142 24.4453 21.9227C24.2979 21.8312 24.1279 21.7827 23.9545 21.7827C23.7811 21.7827 23.6111 21.8312 23.4638 21.9227C23.3164 22.0142 23.1976 22.1451 23.1207 22.3005L19.6676 29.2939L11.9533 30.4154C11.7816 30.4403 11.6203 30.5128 11.4877 30.6246C11.3551 30.7364 11.2564 30.8831 11.2027 31.0481C11.1491 31.2131 11.1427 31.3898 11.1843 31.5582C11.2259 31.7266 11.3138 31.88 11.438 32.0011L17.0225 37.4443L15.7039 45.1315C15.6741 45.3027 15.6928 45.4788 15.758 45.6399C15.8232 45.8009 15.9323 45.9405 16.0728 46.0427C16.2133 46.1449 16.3797 46.2056 16.553 46.218C16.7263 46.2304 16.8997 46.1939 17.0533 46.1127L23.9558 42.4838L30.8589 46.1127C31.0124 46.1936 31.1855 46.2299 31.3585 46.2175C31.5316 46.2051 31.6977 46.1445 31.8381 46.0425C31.9784 45.9406 32.0875 45.8013 32.1528 45.6406C32.2181 45.4799 32.2372 45.3041 32.2077 45.1331L30.8892 37.4459L36.4742 32.0011C36.5984 31.88 36.6863 31.7265 36.7279 31.5581C36.7694 31.3896 36.763 31.2129 36.7093 31.0479C36.6556 30.8829 36.5569 30.7362 36.4241 30.6244C36.2914 30.5126 36.1301 30.4402 35.9584 30.4154ZM29.2412 36.4546C29.1335 36.5598 29.0531 36.6897 29.0068 36.833C28.9605 36.9763 28.9498 37.1286 28.9756 37.277L30.0578 43.5888L24.3888 40.609C24.2554 40.5389 24.1069 40.5022 23.9561 40.5022C23.8053 40.5022 23.6568 40.5389 23.5234 40.609L17.855 43.5888L18.9376 37.277C18.9634 37.1286 18.9527 36.9763 18.9064 36.833C18.8601 36.6897 18.7797 36.5599 18.672 36.4546L14.0863 31.9847L20.4236 31.064C20.5728 31.0423 20.7145 30.9846 20.8365 30.896C20.9584 30.8073 21.057 30.6903 21.1237 30.5551L23.9574 24.8128L26.7916 30.5551C26.8584 30.6903 26.957 30.8073 27.0789 30.896C27.2009 30.9846 27.3426 31.0423 27.4918 31.064L33.8286 31.9847L29.2412 36.4546Z" fill="#FD3A30"></path>
                           <path d="M55.9128 38.9141H42.9248C42.6782 38.9141 42.4418 39.012 42.2674 39.1864C42.0931 39.3607 41.9951 39.5972 41.9951 39.8438C41.9951 40.0903 42.0931 40.3268 42.2674 40.5011C42.4418 40.6755 42.6782 40.7734 42.9248 40.7734H55.9139C56.1604 40.7734 56.3969 40.6755 56.5713 40.5011C56.7456 40.3268 56.8436 40.0903 56.8436 39.8438C56.8436 39.5972 56.7456 39.3607 56.5713 39.1864C56.3969 39.012 56.1604 38.9141 55.9139 38.9141H55.9128Z" fill="black"></path>
                           <path d="M55.9128 33.4688H42.9248C42.6782 33.4688 42.4418 33.5667 42.2674 33.741C42.0931 33.9154 41.9951 34.1519 41.9951 34.3984C41.9951 34.645 42.0931 34.8815 42.2674 35.0558C42.4418 35.2302 42.6782 35.3281 42.9248 35.3281H55.9139C56.1604 35.3281 56.3969 35.2302 56.5713 35.0558C56.7456 34.8815 56.8436 34.645 56.8436 34.3984C56.8436 34.1519 56.7456 33.9154 56.5713 33.741C56.3969 33.5667 56.1604 33.4688 55.9139 33.4688H55.9128Z" fill="black"></path>
                           <path d="M55.9128 44.3594H42.9248C42.6782 44.3594 42.4418 44.4573 42.2674 44.6317C42.0931 44.806 41.9951 45.0425 41.9951 45.2891C41.9951 45.5356 42.0931 45.7721 42.2674 45.9464C42.4418 46.1208 42.6782 46.2188 42.9248 46.2188H55.9139C56.1604 46.2188 56.3969 46.1208 56.5713 45.9464C56.7456 45.7721 56.8436 45.5356 56.8436 45.2891C56.8436 45.0425 56.7456 44.806 56.5713 44.6317C56.3969 44.4573 56.1604 44.3594 55.9139 44.3594H55.9128Z" fill="black"></path>
                           <path d="M55.9128 21.7813H42.9248C42.6782 21.7813 42.4418 21.8792 42.2674 22.0535C42.0931 22.2279 41.9951 22.4644 41.9951 22.7109V27.6053C41.9953 27.8519 42.0933 28.0883 42.2676 28.2626C42.4419 28.4369 42.6783 28.5349 42.9248 28.535H55.9139C56.1604 28.535 56.3969 28.4371 56.5713 28.2627C56.7456 28.0884 56.8436 27.8519 56.8436 27.6053V22.712C56.8438 22.5897 56.8198 22.4686 56.7731 22.3556C56.7264 22.2426 56.6579 22.1399 56.5714 22.0534C56.4849 21.9669 56.3823 21.8984 56.2692 21.8517C56.1562 21.805 56.0351 21.781 55.9128 21.7813ZM54.9831 26.6757H43.8534V23.6406H54.9842L54.9831 26.6757Z" fill="black"></path>
                        </svg>