<svg xmlns="http://www.w3.org/2000/svg" width="56" height="47" viewBox="0 0 56 47" fill="none">
                           <g clip-path="url(#clip0_113_1317)">
                              <path fill-rule="evenodd" clip-rule="evenodd" d="M2.175 0H0.875L1.526 1.126L27.35 45.7L27.999 46.82L28.648 45.7L54.475 1.126L55.126 0H34.234L34.018 0.376L27.996 10.852L21.842 0.37L21.624 0H2.175ZM12.458 1.5H3.475L27.999 43.828L52.523 1.5H43.409L28.643 27.106L27.996 28.228L27.345 27.108L12.458 1.5ZM41.675 1.5H35.109L29.299 11.6L28.656 12.72L28.013 13.84L27.359 12.726L26.705 11.612L20.76 1.5H14.193L27.993 25.234L41.675 1.5Z" fill="#FF6C6C"></path>
                           </g>
                           <defs>
                              <clipPath id="clip0_113_1317">
                                 <rect width="54.252" height="46.82" fill="white" transform="translate(0.874023)"></rect>
                              </clipPath>
                           </defs>
                        </svg>